<svg width="362" height="86" viewBox="0 0 362 86" fill="none" xmlns="http://www.w3.org/2000/svg">
<path d="M10.128 12.736C9.36 13.84 8.24 14.64 6.592 14.64C4.208 14.64 2.4 12.784 2.4 10.352C2.4 7.92 4.16 6.064 6.512 6.064C8.16 6.064 9.28 6.864 10 7.888L11.168 6.816C10.32 5.584 8.736 4.512 6.512 4.512C3.328 4.512 0.768 7.024 0.768 10.352C0.768 13.68 3.36 16.192 6.592 16.192C8.688 16.192 10.304 15.136 11.28 13.728L10.128 12.736ZM12.9188 12.8C12.9188 14.928 14.2148 16.192 16.0548 16.192C17.3988 16.192 18.2148 15.632 18.6788 14.784V16H20.1988V7.904H18.6468V12.016C18.6468 13.216 18.0548 14.768 16.3748 14.768C15.3348 14.768 14.4708 14.08 14.4708 12.736V7.904H12.9188V12.8ZM24.3793 7.904H22.8593V16H24.4113V11.984C24.4113 10.32 25.3873 9.264 26.8753 9.264C26.9873 9.264 27.1313 9.28 27.1953 9.296V7.776C27.0833 7.728 26.8913 7.712 26.6993 7.712C25.6113 7.712 24.7793 8.32 24.3793 9.328V7.904ZM30.4261 7.904H28.9061V16H30.4581V11.984C30.4581 10.32 31.4341 9.264 32.9221 9.264C33.0341 9.264 33.1781 9.28 33.2421 9.296V7.776C33.1301 7.728 32.9381 7.712 32.7461 7.712C31.6581 7.712 30.8261 8.32 30.4261 9.328V7.904ZM41.8078 12.352C41.8558 12.064 41.8878 11.776 41.8878 11.472C41.8878 9.392 40.4638 7.712 38.1438 7.712C35.7118 7.712 34.0478 9.584 34.0478 11.968C34.0478 14.336 35.7758 16.192 38.3838 16.192C39.6638 16.192 40.7518 15.744 41.6478 14.832L40.7038 13.744C40.1438 14.368 39.3758 14.768 38.4158 14.768C37.0238 14.768 35.8078 13.888 35.6798 12.352H41.8078ZM38.1598 9.104C39.3598 9.104 40.2558 9.856 40.3678 11.072V11.088H35.7278C35.9678 9.856 36.8958 9.104 38.1598 9.104ZM43.9061 7.904V16H45.4581V11.888C45.4581 10.688 46.0501 9.136 47.7301 9.136C48.7701 9.136 49.6341 9.824 49.6341 11.168V16H51.1861V11.104C51.1861 8.976 49.8901 7.712 48.0501 7.712C46.7061 7.712 45.8901 8.272 45.4261 9.12V7.904H43.9061ZM52.7296 7.904V9.2H53.9456V13.616C53.9456 15.264 54.8736 16.192 56.4736 16.192C57.0336 16.192 57.4656 16.096 57.7696 15.92V14.496C57.3856 14.736 56.9856 14.752 56.8096 14.752C55.9296 14.752 55.4976 14.304 55.4976 13.424V9.2H57.5776V7.904H55.4976V5.68H53.9936V7.904H52.7296ZM63.677 4.704V16H67.773C69.965 16 71.453 14.8 71.453 12.88C71.453 11.408 70.461 10.512 69.613 10.256C70.349 9.904 71.117 8.992 71.117 7.696C71.117 5.856 69.709 4.704 67.597 4.704H63.677ZM65.261 14.544V10.976H67.613C68.893 10.976 69.789 11.76 69.789 12.736C69.789 13.76 69.005 14.544 67.805 14.544H65.261ZM65.261 9.648V6.144H67.565C68.781 6.144 69.469 6.912 69.469 7.824C69.469 8.8 68.877 9.648 67.613 9.648H65.261ZM74.3464 6.48C74.8744 6.48 75.3224 6.048 75.3224 5.488C75.3224 4.928 74.8744 4.512 74.3464 4.512C73.8184 4.512 73.3704 4.928 73.3704 5.488C73.3704 6.048 73.8184 6.48 74.3464 6.48ZM73.5624 16H75.1144V7.904H73.5624V16ZM85.2215 16V4.704H83.6695V9.024C83.2055 8.304 82.1335 7.712 80.9975 7.712C78.8375 7.712 77.1575 9.472 77.1575 11.952C77.1575 14.416 78.8375 16.192 80.9975 16.192C82.1015 16.192 83.3015 15.584 83.7335 14.8V16H85.2215ZM78.7255 11.952C78.7255 10.272 79.9095 9.136 81.2535 9.136C82.5975 9.136 83.7655 10.24 83.7655 11.952C83.7655 13.632 82.5975 14.768 81.2535 14.768C79.9095 14.768 78.7255 13.632 78.7255 11.952Z" fill="black"/>
<path d="M7.944 54.288C12.936 54.288 14.784 50.16 14.784 45.48C14.784 40.848 12.936 36.672 7.944 36.672C2.976 36.672 1.128 40.848 1.128 45.48C1.128 50.16 2.976 54.288 7.944 54.288ZM4.32 45.48C4.32 41.856 5.472 39.6 7.944 39.6C10.44 39.6 11.568 41.856 11.568 45.48C11.568 49.104 10.44 51.36 7.944 51.36C5.472 51.36 4.32 49.104 4.32 45.48ZM16.1961 52.512C16.1961 53.544 16.9641 54.288 17.9961 54.288C18.9801 54.288 19.7961 53.544 19.7961 52.512C19.7961 51.48 18.9801 50.76 17.9961 50.76C16.9641 50.76 16.1961 51.48 16.1961 52.512ZM27.9159 36.672C24.9159 36.672 22.4199 38.616 22.4199 41.52C22.4199 43.248 23.5479 44.76 24.6999 45.264C23.3799 45.768 21.9159 47.136 21.9159 49.248C21.9159 52.128 24.5079 54.288 27.9159 54.288C31.2999 54.288 33.8919 52.128 33.8919 49.248C33.8919 47.136 32.4039 45.768 31.1319 45.264C32.2839 44.76 33.4119 43.248 33.4119 41.52C33.4119 38.616 30.9159 36.672 27.9159 36.672ZM27.9159 46.632C29.5479 46.632 30.7479 47.592 30.7479 49.104C30.7479 50.52 29.5479 51.504 27.9159 51.504C26.2839 51.504 25.0839 50.52 25.0839 49.104C25.0839 47.592 26.2839 46.632 27.9159 46.632ZM27.9159 39.456C29.2359 39.456 30.3399 40.272 30.3399 41.616C30.3399 42.984 29.2359 43.848 27.9159 43.848C26.5719 43.848 25.4679 42.984 25.4679 41.616C25.4679 40.272 26.5959 39.456 27.9159 39.456ZM41.3768 51.336C39.8648 51.336 38.7608 50.448 38.0648 49.104L35.5928 50.808C36.7208 53.016 38.8328 54.288 41.4968 54.288C45.2168 54.288 47.6168 51.792 47.6168 48.408C47.6168 45.048 45.3368 42.912 41.8808 42.912C40.9928 42.912 40.1528 43.08 39.6968 43.344L40.0568 39.816H46.5128V36.984H37.3928L36.5527 45.816L38.4488 46.608C39.2408 45.912 40.2008 45.552 41.3288 45.552C43.2248 45.552 44.4008 46.776 44.4008 48.504C44.4008 50.232 43.2248 51.336 41.3768 51.336ZM56.487 36.96V54H67.695V51.216H59.655V46.824H66.063V44.04H59.655V39.744H67.431V36.96H56.487ZM68.8181 39.768H73.6901V54H76.8581V39.768H81.7541V36.96H68.8181V39.768ZM84.1198 36.96V54H87.2878V46.848H95.0878V54H98.2558V36.96H95.0878V43.968H87.2878V36.96H84.1198Z" fill="black"/>
<path d="M3.616 83.112H5.152V81.144C7.232 80.888 8.384 79.48 8.384 77.944C8.384 75.96 7.008 75.256 5.136 74.456C3.824 73.864 2.784 73.544 2.784 72.632C2.784 71.864 3.504 71.368 4.48 71.368C5.296 71.368 6.048 71.752 6.608 72.632L8.176 71.464C7.536 70.312 6.464 69.688 5.248 69.496V67.592H3.712V69.512C1.92 69.816 0.672 71.08 0.672 72.696C0.672 74.728 2.192 75.352 3.776 76.072C5.328 76.76 6.272 77.016 6.272 78.008C6.272 78.696 5.568 79.256 4.432 79.256C3.344 79.256 2.48 78.696 1.952 77.736L0.352 78.952C1.04 80.184 2.256 80.92 3.616 81.128V83.112ZM13.2445 71.448C14.2525 71.448 14.9405 72.056 14.9405 72.952C14.9405 75.208 9.4205 75.896 9.4205 79.848C9.4205 80.296 9.4685 80.68 9.5165 81H17.0205V79.128H11.8365C11.9005 77.08 17.0845 76.344 17.0845 72.808C17.0845 70.68 15.3085 69.448 13.3245 69.448C11.6125 69.448 10.1405 70.296 9.4205 71.752L11.0365 72.856C11.4685 72.008 12.2845 71.448 13.2445 71.448ZM18.6773 83.112H19.6373L20.7893 80.552C20.8693 80.36 20.9173 80.2 20.9173 80.008C20.9173 79.32 20.4053 78.84 19.7173 78.84C19.0293 78.84 18.5173 79.32 18.5173 80.008C18.5173 80.568 18.9013 81 19.3653 81.144L18.6773 83.112ZM25.0323 79.096H22.4723V81H29.6403V79.096H27.1443V69.64H25.4803C24.8243 70.68 23.7523 71.224 22.2963 71.288V73.176C23.6883 73.176 24.4723 72.84 25.0323 72.344V79.096ZM34.4376 81.208C36.6936 81.208 38.4856 79.544 38.4856 77.336C38.4856 75.24 36.8536 73.624 34.8056 73.624C34.5656 73.624 34.3736 73.64 34.2616 73.688L37.0456 69.656H34.5976L31.7016 73.976C30.9816 75.064 30.3736 76.008 30.3736 77.272C30.3736 79.496 32.1976 81.208 34.4376 81.208ZM34.4376 79.336C33.2856 79.336 32.4696 78.536 32.4696 77.32C32.4696 76.232 33.2696 75.384 34.4696 75.384C35.5576 75.384 36.4376 76.2 36.4376 77.368C36.4376 78.52 35.5896 79.336 34.4376 79.336ZM43.3386 69.448C41.0826 69.448 39.2906 71.112 39.2906 73.32C39.2906 75.416 40.9226 77.032 42.9706 77.032C43.2106 77.032 43.4026 77.016 43.5146 76.968L40.7306 81H43.1786L46.0746 76.68C46.8266 75.592 47.4026 74.648 47.4026 73.384C47.4026 71.16 45.5786 69.448 43.3386 69.448ZM43.3386 71.32C44.4906 71.32 45.3066 72.12 45.3066 73.336C45.3066 74.424 44.5066 75.272 43.3066 75.272C42.2186 75.272 41.3386 74.424 41.3386 73.288C41.3386 72.136 42.1866 71.32 43.3386 71.32ZM47.5474 80.008C47.5474 80.696 48.0594 81.192 48.7474 81.192C49.4034 81.192 49.9474 80.696 49.9474 80.008C49.9474 79.32 49.4034 78.84 48.7474 78.84C48.0594 78.84 47.5474 79.32 47.5474 80.008ZM50.8646 76.904V78.264H56.1446V81H58.1766V78.264H59.6486V76.392H58.1766V69.64H55.6166L50.8646 76.904ZM56.1606 72.136L56.1766 76.424H53.3766L56.1606 72.136ZM64.6195 71.448C65.6275 71.448 66.3155 72.056 66.3155 72.952C66.3155 75.208 60.7955 75.896 60.7955 79.848C60.7955 80.296 60.8435 80.68 60.8915 81H68.3955V79.128H63.2115C63.2755 77.08 68.4595 76.344 68.4595 72.808C68.4595 70.68 66.6835 69.448 64.6995 69.448C62.9875 69.448 61.5155 70.296 60.7955 71.752L62.4115 72.856C62.8435 72.008 63.6595 71.448 64.6195 71.448Z" fill="#8E8E93"/>
<line x1="125.5" y1="2.18557e-08" x2="125.5" y2="81" stroke="#C7C7CC"/>
<path d="M150.728 16L151.912 12.928H156.712L157.896 16H159.528L155.144 4.704H153.48L149.096 16H150.728ZM152.424 11.44L154.312 6.432L156.2 11.44H152.424ZM160.731 12.8C160.731 14.928 162.027 16.192 163.867 16.192C165.211 16.192 166.027 15.632 166.491 14.784V16H168.011V7.904H166.459V12.016C166.459 13.216 165.867 14.768 164.187 14.768C163.147 14.768 162.283 14.08 162.283 12.736V7.904H160.731V12.8ZM176.576 13.52C176.064 14.272 175.248 14.752 174.224 14.752C172.736 14.752 171.616 13.536 171.616 11.952C171.616 10.368 172.72 9.152 174.24 9.152C175.216 9.152 175.968 9.68 176.464 10.4L177.488 9.408C176.768 8.368 175.712 7.712 174.256 7.712C171.904 7.712 170.032 9.568 170.032 11.936C170.032 14.32 171.904 16.192 174.256 16.192C175.68 16.192 176.896 15.536 177.616 14.496L176.576 13.52ZM178.511 7.904V9.2H179.727V13.616C179.727 15.264 180.655 16.192 182.255 16.192C182.815 16.192 183.247 16.096 183.551 15.92V14.496C183.167 14.736 182.767 14.752 182.591 14.752C181.711 14.752 181.279 14.304 181.279 13.424V9.2H183.359V7.904H181.279V5.68H179.775V7.904H178.511ZM186.081 6.48C186.609 6.48 187.057 6.048 187.057 5.488C187.057 4.928 186.609 4.512 186.081 4.512C185.553 4.512 185.105 4.928 185.105 5.488C185.105 6.048 185.553 6.48 186.081 6.48ZM185.297 16H186.849V7.904H185.297V16ZM193.068 16.192C195.452 16.192 197.26 14.336 197.26 11.952C197.26 9.568 195.452 7.712 193.068 7.712C190.684 7.712 188.876 9.568 188.876 11.952C188.876 14.336 190.684 16.192 193.068 16.192ZM193.068 9.184C194.604 9.184 195.676 10.464 195.676 11.952C195.676 13.44 194.604 14.72 193.068 14.72C191.532 14.72 190.46 13.44 190.46 11.952C190.46 10.464 191.532 9.184 193.068 9.184ZM199.297 7.904V16H200.849V11.888C200.849 10.688 201.441 9.136 203.121 9.136C204.161 9.136 205.025 9.824 205.025 11.168V16H206.577V11.104C206.577 8.976 205.281 7.712 203.441 7.712C202.097 7.712 201.281 8.272 200.817 9.12V7.904H199.297ZM220.183 12.352C220.231 12.064 220.263 11.776 220.263 11.472C220.263 9.392 218.839 7.712 216.519 7.712C214.087 7.712 212.423 9.584 212.423 11.968C212.423 14.336 214.151 16.192 216.759 16.192C218.039 16.192 219.127 15.744 220.023 14.832L219.079 13.744C218.519 14.368 217.751 14.768 216.791 14.768C215.399 14.768 214.183 13.888 214.055 12.352H220.183ZM216.535 9.104C217.735 9.104 218.631 9.856 218.743 11.072V11.088H214.103C214.343 9.856 215.271 9.104 216.535 9.104ZM222.281 7.904V16H223.833V11.888C223.833 10.688 224.425 9.136 226.105 9.136C227.145 9.136 228.009 9.824 228.009 11.168V16H229.561V11.104C229.561 8.976 228.265 7.712 226.425 7.712C225.081 7.712 224.265 8.272 223.801 9.12V7.904H222.281ZM239.55 16V4.704H237.998V9.024C237.534 8.304 236.462 7.712 235.326 7.712C233.166 7.712 231.486 9.472 231.486 11.952C231.486 14.416 233.166 16.192 235.326 16.192C236.43 16.192 237.63 15.584 238.062 14.8V16H239.55ZM233.054 11.952C233.054 10.272 234.238 9.136 235.582 9.136C236.926 9.136 238.094 10.24 238.094 11.952C238.094 13.632 236.926 14.768 235.582 14.768C234.238 14.768 233.054 13.632 233.054 11.952ZM247.467 9.28C246.907 8.304 245.963 7.712 244.667 7.712C242.987 7.712 241.771 8.816 241.771 10.048C241.771 11.392 242.651 12.032 244.299 12.56C245.787 13.024 246.107 13.328 246.107 13.904C246.107 14.464 245.563 14.816 244.619 14.816C243.723 14.816 243.083 14.336 242.587 13.584L241.451 14.4C242.011 15.504 243.227 16.192 244.635 16.192C246.379 16.192 247.627 15.2 247.627 13.872C247.627 12.496 246.731 11.84 244.955 11.248C243.675 10.816 243.291 10.528 243.291 10.016C243.291 9.456 243.819 9.072 244.603 9.072C245.419 9.072 245.947 9.488 246.347 10.112L247.467 9.28ZM254.378 6.48C254.906 6.48 255.354 6.048 255.354 5.488C255.354 4.928 254.906 4.512 254.378 4.512C253.85 4.512 253.402 4.928 253.402 5.488C253.402 6.048 253.85 6.48 254.378 6.48ZM253.594 16H255.146V7.904H253.594V16ZM257.797 7.904V16H259.349V11.888C259.349 10.688 259.941 9.136 261.621 9.136C262.661 9.136 263.525 9.824 263.525 11.168V16H265.077V11.104C265.077 8.976 263.781 7.712 261.941 7.712C260.597 7.712 259.781 8.272 259.317 9.12V7.904H257.797Z" fill="black"/>
<path d="M149.552 50.952C150.68 52.992 152.696 54.288 155.288 54.288C158.864 54.288 161.456 51.984 161.456 48.696C161.456 45.936 159.416 43.944 156.656 43.68L160.904 39.072V36.984H150.44V39.816H156.776L152.72 44.304V46.152C153.2 46.032 153.872 45.984 154.64 45.984C156.92 45.984 158.264 47.016 158.264 48.816C158.264 50.28 157.016 51.336 155.288 51.336C153.872 51.336 152.672 50.568 151.976 49.152L149.552 50.952Z" fill="black"/>
<path d="M150.408 69.64V81H152.52V76.232H157.72V81H159.832V69.64H157.72V74.312H152.52V69.64H150.408ZM165.974 72.648C163.494 72.648 161.654 74.52 161.654 76.92C161.654 79.32 163.494 81.192 165.974 81.192C168.486 81.192 170.294 79.32 170.294 76.92C170.294 74.52 168.486 72.648 165.974 72.648ZM165.974 74.536C167.254 74.536 168.182 75.576 168.182 76.92C168.182 78.264 167.254 79.304 165.974 79.304C164.694 79.304 163.766 78.264 163.766 76.92C163.766 75.576 164.694 74.536 165.974 74.536ZM171.915 72.84V77.784C171.915 79.944 173.163 81.192 175.083 81.192C176.283 81.192 177.083 80.728 177.595 79.88V81H179.595V72.84H177.515V77.048C177.515 78.152 176.939 79.336 175.643 79.336C174.683 79.336 173.995 78.712 173.995 77.544V72.84H171.915ZM184.013 72.84H181.965V81H184.045V77.416C184.045 75.736 184.925 74.648 186.381 74.648C186.573 74.648 186.717 74.664 186.829 74.712V72.712C186.717 72.664 186.525 72.648 186.333 72.648C185.245 72.648 184.413 73.256 184.013 74.264V72.84ZM190.73 81.192C192.618 81.192 193.914 80.136 193.914 78.76C193.914 77.272 192.842 76.728 191.29 76.168C190.026 75.72 189.594 75.496 189.594 75.064C189.594 74.616 190.09 74.312 190.746 74.312C191.514 74.312 192.026 74.712 192.362 75.272L193.754 74.264C193.226 73.288 192.122 72.648 190.778 72.648C189.018 72.648 187.642 73.672 187.642 75.08C187.642 76.424 188.538 77.08 190.202 77.64C191.53 78.088 191.962 78.296 191.962 78.808C191.962 79.24 191.498 79.512 190.73 79.512C189.85 79.512 189.226 79.016 188.778 78.312L187.37 79.352C187.993 80.504 189.258 81.192 190.73 81.192Z" fill="#8E8E93"/>
<path d="M220.064 51.144H216.224V54H226.976V51.144H223.232V36.96H220.736C219.752 38.52 218.144 39.336 215.96 39.432V42.264C218.048 42.264 219.224 41.76 220.064 41.016V51.144ZM234.172 54.312C237.556 54.312 240.244 51.816 240.244 48.504C240.244 45.36 237.796 42.936 234.724 42.936C234.364 42.936 234.076 42.96 233.908 43.032L238.084 36.984H234.412L230.068 43.464C228.988 45.096 228.076 46.512 228.076 48.408C228.076 51.744 230.812 54.312 234.172 54.312ZM234.172 51.504C232.444 51.504 231.22 50.304 231.22 48.48C231.22 46.848 232.42 45.576 234.22 45.576C235.852 45.576 237.172 46.8 237.172 48.552C237.172 50.28 235.9 51.504 234.172 51.504Z" fill="black"/>
<path d="M216.408 81H218.52V73.496L221.704 78.44H222.76L225.928 73.496V81H228.04V69.64H226.152L222.232 75.832L218.312 69.64H216.408V81ZM230.637 81H232.717V72.84H230.637V81ZM231.661 69.304C230.973 69.304 230.461 69.784 230.461 70.472C230.461 71.16 230.973 71.656 231.661 71.656C232.317 71.656 232.861 71.16 232.861 70.472C232.861 69.784 232.317 69.304 231.661 69.304ZM235.09 72.84V81H237.17V76.792C237.17 75.672 237.746 74.504 239.042 74.504C240.002 74.504 240.69 75.128 240.69 76.296V81H242.77V76.056C242.77 73.896 241.522 72.648 239.602 72.648C238.402 72.648 237.602 73.112 237.09 73.96V72.84H235.09ZM244.884 72.84V77.784C244.884 79.944 246.132 81.192 248.052 81.192C249.252 81.192 250.052 80.728 250.564 79.88V81H252.564V72.84H250.484V77.048C250.484 78.152 249.908 79.336 248.612 79.336C247.652 79.336 246.964 78.712 246.964 77.544V72.84H244.884ZM254.07 72.84V74.504H255.222V78.44C255.222 80.216 256.23 81.192 257.894 81.192C258.582 81.192 259.078 81.064 259.446 80.872V79.048C259.078 79.288 258.678 79.32 258.438 79.32C257.686 79.32 257.302 78.92 257.302 78.136V74.504H259.238V72.84H257.302V70.616H255.286V72.84H254.07ZM264.345 72.648C261.913 72.648 260.169 74.552 260.169 76.936C260.169 79.32 261.945 81.192 264.633 81.192C265.977 81.192 267.017 80.808 268.025 79.848L266.873 78.472C266.377 78.984 265.673 79.384 264.729 79.384C263.529 79.384 262.457 78.712 262.329 77.432H268.057C268.121 77.128 268.185 76.792 268.185 76.424C268.185 74.264 266.665 72.648 264.345 72.648ZM264.329 74.392C265.305 74.392 266.073 75 266.153 76.008V76.024H262.329C262.505 75 263.305 74.392 264.329 74.392ZM272.526 81.192C274.414 81.192 275.71 80.136 275.71 78.76C275.71 77.272 274.638 76.728 273.086 76.168C271.822 75.72 271.39 75.496 271.39 75.064C271.39 74.616 271.886 74.312 272.542 74.312C273.31 74.312 273.822 74.712 274.158 75.272L275.55 74.264C275.022 73.288 273.918 72.648 272.574 72.648C270.814 72.648 269.438 73.672 269.438 75.08C269.438 76.424 270.334 77.08 271.998 77.64C273.326 78.088 273.758 78.296 273.758 78.808C273.758 79.24 273.294 79.512 272.526 79.512C271.646 79.512 271.022 79.016 270.574 78.312L269.166 79.352C269.79 80.504 271.054 81.192 272.526 81.192Z" fill="#8E8E93"/>
<path d="M303.408 51.336C301.896 51.336 300.792 50.448 300.096 49.104L297.624 50.808C298.752 53.016 300.864 54.288 303.528 54.288C307.248 54.288 309.648 51.792 309.648 48.408C309.648 45.048 307.368 42.912 303.912 42.912C303.024 42.912 302.184 43.08 301.728 43.344L302.088 39.816H308.544V36.984H299.424L298.584 45.816L300.48 46.608C301.272 45.912 302.232 45.552 303.36 45.552C305.256 45.552 306.432 46.776 306.432 48.504C306.432 50.232 305.256 51.336 303.408 51.336ZM317.603 36.672C314.603 36.672 312.107 38.616 312.107 41.52C312.107 43.248 313.235 44.76 314.387 45.264C313.067 45.768 311.603 47.136 311.603 49.248C311.603 52.128 314.195 54.288 317.603 54.288C320.987 54.288 323.579 52.128 323.579 49.248C323.579 47.136 322.091 45.768 320.819 45.264C321.971 44.76 323.099 43.248 323.099 41.52C323.099 38.616 320.603 36.672 317.603 36.672ZM317.603 46.632C319.235 46.632 320.435 47.592 320.435 49.104C320.435 50.52 319.235 51.504 317.603 51.504C315.971 51.504 314.771 50.52 314.771 49.104C314.771 47.592 315.971 46.632 317.603 46.632ZM317.603 39.456C318.923 39.456 320.027 40.272 320.027 41.616C320.027 42.984 318.923 43.848 317.603 43.848C316.259 43.848 315.155 42.984 315.155 41.616C315.155 40.272 316.283 39.456 317.603 39.456Z" fill="black"/>
<path d="M305.288 71.464C304.52 70.104 303.096 69.448 301.624 69.448C299.4 69.448 297.784 70.84 297.784 72.696C297.784 74.728 299.304 75.352 300.888 76.072C302.44 76.76 303.384 77.016 303.384 78.008C303.384 78.696 302.68 79.256 301.544 79.256C300.456 79.256 299.592 78.696 299.064 77.736L297.464 78.952C298.28 80.424 299.848 81.192 301.512 81.192C304.056 81.192 305.496 79.672 305.496 77.944C305.496 75.96 304.12 75.256 302.248 74.456C300.936 73.864 299.896 73.544 299.896 72.632C299.896 71.864 300.616 71.368 301.592 71.368C302.408 71.368 303.16 71.752 303.72 72.632L305.288 71.464ZM310.814 72.648C308.382 72.648 306.638 74.552 306.638 76.936C306.638 79.32 308.414 81.192 311.102 81.192C312.446 81.192 313.486 80.808 314.494 79.848L313.342 78.472C312.846 78.984 312.142 79.384 311.198 79.384C309.998 79.384 308.926 78.712 308.798 77.432H314.526C314.59 77.128 314.654 76.792 314.654 76.424C314.654 74.264 313.134 72.648 310.814 72.648ZM310.798 74.392C311.774 74.392 312.542 75 312.622 76.008V76.024H308.798C308.974 75 309.774 74.392 310.798 74.392ZM322.147 78.232C321.651 78.888 320.995 79.32 320.099 79.32C318.803 79.32 317.859 78.28 317.859 76.92C317.859 75.56 318.803 74.52 320.083 74.52C320.963 74.52 321.603 74.968 322.051 75.688L323.427 74.44C322.659 73.288 321.539 72.648 320.067 72.648C317.587 72.648 315.747 74.52 315.747 76.904C315.747 79.336 317.587 81.192 320.067 81.192C321.539 81.192 322.739 80.536 323.491 79.464L322.147 78.232ZM328.583 72.648C326.103 72.648 324.263 74.52 324.263 76.92C324.263 79.32 326.103 81.192 328.583 81.192C331.095 81.192 332.903 79.32 332.903 76.92C332.903 74.52 331.095 72.648 328.583 72.648ZM328.583 74.536C329.863 74.536 330.791 75.576 330.791 76.92C330.791 78.264 329.863 79.304 328.583 79.304C327.303 79.304 326.375 78.264 326.375 76.92C326.375 75.576 327.303 74.536 328.583 74.536ZM334.653 72.84V81H336.733V76.792C336.733 75.672 337.309 74.504 338.605 74.504C339.565 74.504 340.253 75.128 340.253 76.296V81H342.333V76.056C342.333 73.896 341.085 72.648 339.165 72.648C337.965 72.648 337.165 73.112 336.653 73.96V72.84H334.653ZM348.223 79.336C347.071 79.336 346.063 78.36 346.063 76.904C346.063 75.464 347.071 74.504 348.223 74.504C349.423 74.504 350.383 75.432 350.383 76.904C350.383 78.376 349.423 79.336 348.223 79.336ZM350.431 81H352.383V69.64H350.303V73.88C349.807 73.112 348.799 72.648 347.823 72.648C345.599 72.648 343.967 74.472 343.967 76.92C343.967 79.432 345.679 81.192 347.791 81.192C348.703 81.192 349.919 80.728 350.431 79.832V81ZM357.355 81.192C359.243 81.192 360.539 80.136 360.539 78.76C360.539 77.272 359.467 76.728 357.915 76.168C356.651 75.72 356.219 75.496 356.219 75.064C356.219 74.616 356.715 74.312 357.371 74.312C358.139 74.312 358.651 74.712 358.987 75.272L360.379 74.264C359.851 73.288 358.747 72.648 357.403 72.648C355.643 72.648 354.267 73.672 354.267 75.08C354.267 76.424 355.163 77.08 356.827 77.64C358.155 78.088 358.587 78.296 358.587 78.808C358.587 79.24 358.123 79.512 357.355 79.512C356.475 79.512 355.851 79.016 355.403 78.312L353.995 79.352C354.618 80.504 355.883 81.192 357.355 81.192Z" fill="#8E8E93"/>
</svg>
